# xmcd CD database file
#
# Track frame offsets:
#	150
#	17850
#	40800
#	73650
#	90675
#	101925
#	130725
#	147075
#	166050
#	177375
#	211125
#	232950
#	248400
#	263925
#	286725
#
# Disc length: 3952 seconds
#
# Revision: 1
# Processed by: cddbd v1.5.2PL0 Copyright (c) Steve Scherf et al.
# Submitted via: CDex 1.70beta2
#
DISCID=cb0f6e0f
DTITLE=Gregor Hilden - Westcoast Blues
DYEAR=1998
DGENRE=Blues
TTITLE0=Down Home Blues
TTITLE1=The Ghetto
TTITLE2=Heart Of The City
TTITLE3=Ocean Breeze Motel
TTITLE4=Ooh Wee Baby
TTITLE5=Sleepwalk
TTITLE6=New York Blues
TTITLE7=Mercy, Mercy, Mercy
TTITLE8=Sunnymoon For Two
TTITLE9=Since I Fell For You
TTITLE10=Proud Pinto
TTITLE11=Westcoast Blues
TTITLE12=Little Funky Thang
TTITLE13=Beale Street Strut
TTITLE14=Apostle
EXTD=YEAR: 1998
EXTT0=
EXTT1=
EXTT2=
EXTT3=
EXTT4=
EXTT5=
EXTT6=
EXTT7=
EXTT8=
EXTT9=
EXTT10=
EXTT11=
EXTT12=
EXTT13=
EXTT14=
PLAYORDER=
